<svg width="95" height="75" viewBox="0 0 95 75" fill="none" xmlns="http://www.w3.org/2000/svg">
<g id="Group 42">
<path id="Vector 182" d="M34.419 11.8249C33.8711 10.3598 32.9755 8.1177 30.6903 5.65871C27.6719 2.41079 23.0815 2.80044 21.7728 5.96349C20.4642 9.12653 21.802 12.6351 22.1291 13.3359C22.4563 14.0368 23.3534 17.1288 26.9949 19.1967C30.6363 21.2645 33.7089 19.4514 34.6316 17.7602C35.8224 15.5777 34.9718 13.3032 34.4238 11.8377L34.419 11.8249Z" stroke="#C8F955" stroke-width="6" stroke-linecap="round"/>
<path id="Vector" d="M0 26.8665H5.51582V51.519H18.6275V56.6704H0V26.8665Z" fill="#4A5FDB"/>
<path id="Vector_2" d="M72.6465 48.5826L77.632 47.1042C78.1725 49.8138 80.457 51.7014 83.9475 51.7014C87.4379 51.7014 89.5561 50.1006 89.5561 47.925C89.5561 45.9546 88.1023 44.8878 85.9417 44.3539L81.5379 43.3278C77.6734 42.3835 73.8513 40.1263 73.8513 35.0359C73.8513 30.6837 77.632 26.8665 83.9888 26.8665C89.4321 26.8665 93.4619 29.6168 94.4177 34.0915L89.3908 35.4871C88.9754 33.4759 87.1889 31.7108 83.9899 31.7108C80.7909 31.7108 79.212 33.3116 79.212 35.0359C79.212 36.9236 80.7496 37.7863 82.8264 38.3203L87.2302 39.3882C92.1745 40.6194 94.9994 43.3698 94.9994 47.9261C94.9994 52.4825 91.0936 56.6704 83.9475 56.6704C77.6734 56.6704 73.6436 53.3452 72.6465 48.5826Z" fill="#4A5FDB"/>
<path id="Vector_3" d="M34.7863 26.8665H25.7547L16.7656 55.9461V56.6704H22.217L23.9495 50.9995L23.9428 50.9984L25.8151 44.617L25.852 44.6158L29.7913 31.6768H30.6659L34.8691 45.3447H34.868L37.2984 53.2663L37.2827 53.264L38.3229 56.6704H43.7754V55.9461L34.7863 26.8665Z" fill="#4A5FDB"/>
<path id="Vector 183" d="M44.1017 32.5615C45.2959 31.7389 46.637 30.8109 47.2976 30.4347C50.8579 28.4073 53.8361 26.8665 57.9805 26.8665C58.6745 26.8665 60.5489 27.3922 60.6917 28.3218C60.8345 29.2515 60.4587 30.8261 59.9667 32.0918C58.7621 35.1905 56.6786 37.8519 54.5944 40.4248C53.13 42.2326 51.6058 44.2814 49.7068 45.7016C48.707 46.4494 47.9743 46.9411 48.7495 46.4826C53.1005 43.9094 59.8516 41.4503 64.9167 41.4503C66.0283 41.4503 67.5728 41.4421 68.3643 42.3739C69.6906 43.9351 68.3419 46.3211 67.5197 47.6983C65.7701 50.6289 63.4205 53.7372 61.3305 56.3573C56.8517 61.1631 54.5944 62.9982 50.4933 66.1937C47.2976 68.6837 45.8789 69.4804 42.8438 71.5723" stroke="#C8F955" stroke-width="6" stroke-linecap="round"/>
</g>
</svg>
